/* XPM */
static char *_542770703629[] = {
/* columns rows colors chars-per-pixel */
"16 16 91 1 ",
"  c #006897",
". c #006A98",
"X c #006D9B",
"o c #006F9E",
"O c #0072A0",
"+ c #0471A0",
"@ c #0074A3",
"# c #0077A6",
"$ c #0079A8",
"% c #007CAB",
"& c #007EAE",
"* c #0B7DAA",
"= c #1A7CA5",
"- c #1D7FA9",
"; c #247FA7",
": c #0081B0",
"> c #0083B3",
", c #0084B3",
"< c #0086B6",
"1 c #0D85B2",
"2 c #0888B5",
"3 c #0089B9",
"4 c #008BBB",
"5 c #008EBE",
"6 c #068EBD",
"7 c #138DB9",
"8 c #0E91BF",
"9 c #258FB7",
"0 c #288CB4",
"q c #2490B9",
"w c #0090C1",
"e c #0093C3",
"r c #0095C6",
"t c #0097C8",
"y c #0098C9",
"u c #009ACB",
"i c #009BCB",
"p c #009CCD",
"a c #1097C5",
"s c #1E97C1",
"d c #1698C4",
"f c #1D9DC8",
"g c #2E9CC3",
"h c #35A5CC",
"j c #49A2C3",
"k c #4FA3C3",
"l c #40A7CB",
"z c #48A7C8",
"x c #49A7C9",
"c c #55ABCA",
"v c #57AACA",
"b c #51ACCD",
"n c #59AAC8",
"m c #58B0CF",
"M c #40ACD1",
"N c #75B3CC",
"B c #75B9D3",
"V c #74BAD4",
"C c #75C0DA",
"Z c #7CC3DC",
"A c #7CC5DE",
"S c #87C6DD",
"D c #8CC6DB",
"F c #89C8DF",
"G c #92C4D8",
"H c #9BCCDF",
"J c #94CEE2",
"K c #A3CFE0",
"L c #A5CFE0",
"P c #A8D8E9",
"I c #B7D5E2",
"U c #B3D8E6",
"Y c #B6D9E6",
"T c #B4DBE9",
"R c #B6DAE8",
"E c #BBDEEB",
"W c #C1E2EE",
"Q c #C7E6F0",
"! c #D3E8F0",
"~ c #D6EAF1",
"^ c #DEEFF5",
"/ c #DFEFF5",
"( c #E6F2F7",
") c #E2F2F8",
"_ c #E9F5F9",
"` c #EDF6F9",
"' c #F6FAFC",
"] c #FBFDFE",
"[ c #FDFEFE",
"{ c white",
"} c None",
/* pixels */
"}}}}}}itrw}}}}}}",
"}}}}iitrraPQ}}}}",
"}}ppiirrwh6Sb:}}",
"}}piirww544S7:}}",
"}pitrwwd84gx:&%}",
"}iirrM)JW_TVv&$}",
"itref{V4<^{H9$#@",
"trewA{h2:D{j$#@O",
"rww5Z{m,:V{k#@Oo",
"rw54s{E:&U'*@OoX",
"}54<<z{UU!0@OoX}",
"}44<2^q&$#@OoX.}",
"}}<,c{!YLGN-X.}}",
"}}::1(`'{{{{; }}",
"}}}}nL##OO=I}}}}",
"}}}}}}OOo.}}}}}}"
};
