/* XPM */
static char *_542770722034[] = {
/* columns rows colors chars-per-pixel */
"64 64 119 2 ",
"   c #006795",
".  c #006997",
"X  c #006C9B",
"o  c #00709F",
"O  c #0B739F",
"+  c #0074A3",
"@  c #0078A7",
"#  c #007CAB",
"$  c #0D7DAA",
"%  c #177AA4",
"&  c #107DA9",
"*  c #207CA5",
"=  c #0080AF",
"-  c #0C81AE",
";  c #1381AD",
":  c #1A83AD",
">  c #0084B4",
",  c #0A87B4",
"<  c #0F8BB7",
"1  c #008CBC",
"2  c #0D8EBC",
"3  c #108AB6",
"4  c #1A88B3",
"5  c #138EBA",
"6  c #0991BF",
"7  c #1890BB",
"8  c #2C85AB",
"9  c #3687AC",
"0  c #3188AD",
"q  c #388AAE",
"w  c #2187B0",
"e  c #248BB3",
"r  c #2B8EB5",
"t  c #3F8EB1",
"y  c #2E90B7",
"u  c #2795BE",
"i  c #2F96BC",
"p  c #3291B7",
"a  c #3495BB",
"s  c #3A96BA",
"d  c #3398BF",
"f  c #439BBE",
"g  c #529DBD",
"h  c #589EBD",
"j  c #008FC0",
"k  c #0093C4",
"l  c #0C93C1",
"z  c #0097C8",
"x  c #009ACB",
"c  c #1195C1",
"v  c #1C97C2",
"b  c #1F9BC5",
"n  c #279DC5",
"m  c #2C9AC2",
"M  c #349BC0",
"N  c #3A9EC3",
"B  c #33A0C6",
"V  c #34A3CA",
"C  c #3BA6CB",
"Z  c #439DC1",
"A  c #46A1C4",
"S  c #4CA3C4",
"D  c #48A7C9",
"F  c #4AADCF",
"G  c #55A4C4",
"H  c #55ACCC",
"J  c #58ABCA",
"K  c #46ADD0",
"L  c #4CAFD1",
"P  c #52AFD0",
"I  c #5DB6D5",
"U  c #63ADCA",
"Y  c #67B1CE",
"T  c #6AB0CB",
"R  c #75B4CE",
"E  c #62B6D3",
"W  c #66B9D6",
"Q  c #6CBAD6",
"!  c #73BAD5",
"~  c #79B9D1",
"^  c #70BDD8",
"/  c #79BFD8",
"(  c #7BC1DA",
")  c #82B5CC",
"_  c #82BED5",
"`  c #8EBDD2",
"'  c #85C1D7",
"]  c #8DC1D6",
"[  c #9BC6D9",
"{  c #95CADE",
"}  c #A0CEDF",
"|  c #ADCEDD",
" . c #92CEE3",
".. c #9DCEE1",
"X. c #96D0E4",
"o. c #A1CFE0",
"O. c #A5D2E3",
"+. c #AAD4E3",
"@. c #ABD9E9",
"#. c #B1D6E5",
"$. c #B6DAE7",
"%. c #BBDBE7",
"&. c #B3DBEA",
"*. c #BBDEEA",
"=. c #BFE0EC",
"-. c #C6E3EE",
";. c #C8E3ED",
":. c #D5E7EF",
">. c #CEE8F1",
",. c #D5EAF2",
"<. c #DCEDF3",
"1. c #E3F1F7",
"2. c #EAF3F7",
"3. c #ECF6F9",
"4. c #EFF8FB",
"5. c #F1F7FA",
"6. c #F4F9FC",
"7. c #FFFFFF",
"8. c None",
/* pixels */
"8.8.8.8.8.8.8.8.8.8.8.8.8.8.8.8.8.8.8.8.8.8.8.8.8.8.8.8.k z k z z 6 1 z 8.8.8.8.8.8.8.8.8.8.8.8.8.8.8.8.8.8.8.8.8.8.8.8.8.8.8.8.",
"8.8.8.8.8.8.8.8.8.8.8.8.8.8.8.8.8.8.8.8.8.8.8.x x x x z z z z 1 6 z z 6 k 1 1 k 1 8.8.8.8.8.8.8.8.8.8.8.8.8.8.8.8.8.8.8.8.8.8.8.",
"8.8.8.8.8.8.8.8.8.8.8.8.8.8.8.8.8.8.8.8.x x x x z z z z z z z z z z 1 z k k k 1 1 k 1 1 8.8.8.8.8.8.8.8.8.8.8.8.8.8.8.8.8.8.8.8.",
"8.8.8.8.8.8.8.8.8.8.8.8.8.8.8.8.8.8.x x x x x x x z z z z z 6 z z 1 z 1 1 k 1 k 1 k 1 1 1 1 8.8.8.8.8.8.8.8.8.8.8.8.8.8.8.8.8.8.",
"8.8.8.8.8.8.8.8.8.8.8.8.8.8.8.8.x x x x x x z z z z z 6 z z z 1 k k k 1 k 1 1 k 1 1 1 1 1 1 1 > 8.8.8.8.8.8.8.8.8.8.8.8.8.8.8.8.",
"8.8.8.8.8.8.8.8.8.8.8.8.8.8.8.x x x x x x z z z z z z z z 1 z z k k k k 1 k k 1 l X.4.7.6.<.^ 1 > 8.8.8.8.8.8.8.8.8.8.8.8.8.8.8.",
"8.8.8.8.8.8.8.8.8.8.8.8.8.x x x x x x x x x z z z z z z z 6 z 1 1 k 1 k 1 k 1 b 6.7.7.7.7.7.7.*.1 > 1 8.8.8.8.8.8.8.8.8.8.8.8.8.",
"8.8.8.8.8.8.8.8.8.8.8.8.x x x x x x x z x z z z z z 6 z 6 z 1 z k 1 k 1 k 1 1 1.7.@.I E -.7.7.7.( > > > 8.8.8.8.8.8.8.8.8.8.8.8.",
"8.8.8.8.8.8.8.8.8.8.8.x x x x x x x x z z z z z k k k k k k k k k k 1 k 1 1 L 6.n 1 1 1 > ^ 7.7.7.> > > > 8.8.8.8.8.8.8.8.8.8.8.",
"8.8.8.8.8.8.8.8.8.8.x x x x x x x x z x z z z z z k k k k k 1 k 1 1 k 1 1 1 =.K 1 1 1 > 1 > >.7.7.m > = > > 8.8.8.8.8.8.8.8.8.8.",
"8.8.8.8.8.8.8.8.8.x x x x x x x x z z z z z k k k k k j k 1 k 1 1 k 1 1 1 1 W 1 1 > > 1 > 1 Q 7.7.m > > > = > 8.8.8.8.8.8.8.8.8.",
"8.8.8.8.8.8.8.8.x x x x x x x x z x z z z z z k k k k k k k 1 k k 1 1 1 1 1 1 > 1 1 1 > 1 > H 7.7.< > > > = > # 8.8.8.8.8.8.8.8.",
"8.8.8.8.8.8.8.x x x x x x x x x z z z z k k k k k k k k k 1 k j 1 1 1 1 1 1 1 1 > 1 > > 1 > ^ 7.<.> > > = # > > = 8.8.8.8.8.8.8.",
"8.8.8.8.8.8.x x x x x x x x x x x z z k k k k k k k k 1 k 1 1 1 1 1 1 1 1 1 1 > 1 > 1 > > > -.7.H > > # > # # # # # 8.8.8.8.8.8.",
"8.8.8.8.8.8.x x x x x x x x x x z k k z k z k k 1 k k 1 1 j k 1 1 1 1 1 1 1 > 1 > > > > > 7 7.1.> = # > # > # = = # 8.8.8.8.8.8.",
"8.8.8.8.8.x x x x x x x x x x x x k z k k k k k k k k 1 k 1 1 1 1 1 1 1 > 1 1 > > 1 > 1 > @.7.u = > > # > # = # # # # 8.8.8.8.8.",
"8.8.8.8.x x x x x x x z x z z z k z k k k k k k j 1 k k 1 1 1 1 1 1 1 > 1 > > 1 1 > > > N 7.Y > = # > # = # # # # # @ # 8.8.8.8.",
"8.8.8.8.x x x x x x z z z z z k k k k k k 1 k 1 k 1 1 1 1 1 1 1 1 1 1 1 1 1 > > > > > 3 6.{ > > # > > # # # # # # # # # 8.8.8.8.",
"8.8.8.x x x x x x x x z z z z z k k k k k 1 k 1 1 k j 1 1 1 1 1 > 1 1 > > > 1 > > > > <.#.> = # > # # # # # # # # @ @ @ # 8.8.8.",
"8.8.8.x x x x x x x k z k k k k z k k k k k k 1 k 1 1 1 c C W ^ W H N 1 1 > > > > > -.;.> > > # # # > # # # @ # # # @ # @ 8.8.8.",
"8.8.x x x x x x x k x x k k k k k k 1 k k k 1 k 1 b X.4.7.7.7.7.7.7.7.7.1./ 5 > > &.<.> > # > > # > # # # # # @ @ @ @ @ @ @ 8.8.",
"8.8.x x x x x x z x k k k k k k k k k k 1 1 1 c @.7.7.7.7.3.&.#.,.7.7.7.7.7.7.{ &.<., > # > # # # $.f # # # # @ @ @ @ @ @ + 8.8.",
"8.8.x x x x x x z k k z z k k j 1 k k 1 1 j C 6.7.7.7.3.V 1 1 1 > 2 ..7.7.7.7.7.7.O.{ { { { ..#.5.6.# # # @ @ @ @ @ @ + @ + 8.8.",
"8.x x x x x x x x k z k k k k k 1 k k 1 k K 7.7.7.7.1.2 1 > > 1 > 1 > / 7.7.7.7.7.7.7.7.7.7.7.7.7.O.# # # @ # @ @ @ @ + + @ + 8.",
"8.x x x x z k x k z k k k k k k k 1 k 1 V 7.7.7.7.7.v 1 1 > > > 1 > > > *.7.7.7.7.7.7.7.7.7.7.7.7.a # # # @ @ @ + @ + + + + + 8.",
"8.x x x x k z k k k k k k k 1 k 1 k 1 l 6.7.7.7.7.@.1 > 1 > 1 > > > > > 5 7.7.7.7.7.7.7.7.7.6.7.1.# @ @ @ @ + @ + + + + + + + 8.",
"8.x x x k x x k k k k k k 1 k 1 j j k  .7.7.7.7.7.C 1 > > 1 > > > > > > > +.7.7.7.7.7.4.# # # # # @ # @ @ @ @ + + + + + + + + 8.",
"8.x x x x k k k k k k k k k 1 k 1 1 2 7.7.7.7.7.7.1 1 > > 1 > > > > > > > M 7.7.7.7.7.7.Y # # # # @ @ @ + @ @ + @ + + + o o + 8.",
"x x z k z k k k k k k 1 k 1 1 j k 1 I 7.7.7.7.7.5.> > 1 > > > > > > > > # > 7.7.7.7.7.7.:.# # # @ @ @ @ @ + + @ + + + + o + o o ",
"z x z z k k k k k k k k k 1 k 1 1 1 &.7.7.7.7.7.1.1 1 > > > > > > > # > > # :.7.7.7.7.7.7.# @ @ @ @ @ @ @ + + + + + X o + X o o ",
"z z k k z k k k k k k k 1 1 k 1 1 1 1.7.7.7.7.7.<.> > > 1 > > > > = > # > # O.7.7.7.7.7.7.e # @ @ @ @ + + @ + o + + o + + o + X ",
"k k k z k k k k k 1 1 1 k 1 1 1 1 1 4.7.7.7.7.7.1.> 1 > > > > > > = # > # # { 7.7.7.7.7.7.s @ @ + @ @ + + + + + + o + o X X + X ",
"k k k k k k k k k k k j j 1 1 1 1 1 5.7.7.7.7.7.4.> > > > > > > # > > # # # ' 7.7.7.7.7.7.f @ + @ @ + @ + + + o o + X + X X + X ",
"k k k k k k 1 k 1 1 1 1 1 1 1 1 1 1 1.7.7.7.7.7.7.> > > # > > # > # # > = # ! 7.7.7.7.7.7.y @ @ + + + + o + o + + X + X X X X X ",
"k k k j k 1 k 1 j 1 k 1 1 1 1 1 1 > &.7.7.7.7.7.7.5 > > > > # > # > # # # # _ 7.7.7.7.7.7.$ @ @ + + + + + + X + X + X + X X + X ",
"8.k k k k k 1 k 1 k 1 1 1 1 1 1 1 1 Q 7.7.7.7.7.7.H > > > # > = = # # # # # } 7.7.7.7.7.1.@ @ + + + + + + o + + o X X X X X X X ",
"8.k k 1 k 1 k j 1 j 1 1 1 1 1 > > 1 2 7.7.7.7.7.7.&.> > > > # > # # # # # # ,.7.7.7.7.7._ @ + + + + + o o + + X o X X X X X X 8.",
"8.k 1 k k 1 1 1 1 1 1 1 1 1 > 1 1 > > O.7.7.7.7.7.7.3 # # > # # # # # # # # 7.7.7.7.7.7.$ + @ + + + + o + X X + X X X X X X X 8.",
"8.1 k 1 k 1 1 1 1 1 1 1 1 > 1 > > 1 > 5 7.7.7.7.7.7...> > # # # # # # # # U 7.7.7.7.7.U + + + + + + o + X o X X o X X X X X X 8.",
"8.k 1 k 1 k 1 1 1 1 1 1 1 1 > 1 > > > 1 D 7.7.7.7.7.7.s # # > # # # # # - 5.7.7.7.7.#.+ + + o + o o o o o o X o X X X X . X X 8.",
"8.k 1 1 k 1 1 1 1 1 1 1 > 1 1 > 1 > > > > H 7.7.7.7.7.7.d # # # # # # , <.7.7.7.7.%.@ + + + + + + + X + X o X X X X X X . X . 8.",
"8.8.k 1 1 1 1 1 1 1 > 1 1 > > > > > > > > > M 4.7.7.7.7.7.O.d # # 4 ~ 6.7.7.7.7._ + + + + + + o X X + X o X X X X X X . . . 8.8.",
"8.8.1 1 1 1 1 1 1 > 1 > > 1 > 1 > > > > > > > = ,.7.7.7.7.7.7.7.7.7.7.7.7.7.%.w + + + + + X o + + X + X X X X X X X . . . X 8.8.",
"8.8.1 1 1 1 1 1 1 > 1 1 > > > > > > > > = = = O.7.7.! ' ;.5.7.7.7.6.1.%.T & @ + + + + + + o + o o o X o X X . X X . X . . . 8.8.",
"8.8.8.1 1 1 1 1 1 > > > > > > > > > > > = > =.7.7.A # # # # # # # @ @ @ @ + @ + + + + + o o + X X X o X X . X X . X   X . 8.8.8.",
"8.8.8.1 1 > 1 > 1 > 1 > > > > > > > = > > ;.7.7.' # # # @ # @ @ @ @ + @ @ + + + + + + o + X X + X o X X X X X   . .   . X 8.8.8.",
"8.8.8.8.1 > 1 > > 1 > 1 > > > > # > = # O.7.7.7.- # # # # @ # @ @ @ + @ + + + + + o o + o o o o X X X X X X X   . . . . 8.8.8.8.",
"8.8.8.8.1 1 1 > 1 > > > > > > > > = > G 7.7.7.1.# # @ # # @ @ @ @ @ @ + + + + + o + + X o X X X X X X X . X   X     . . 8.8.8.8.",
"8.8.8.8.8.1 > > > 1 > > > > > # > = = 3.7.7.7.7.S # # # @ @ @ @ @ @ + + + + + + o o + o o o X X X X X X . . . .   X . 8.8.8.8.8.",
"8.8.8.8.8.8.> 1 > > > > > > > > # > d 7.7.7.7.7.7.1.} ~ U G f s p w : & + + o o + + X X X X X X X X X X X .         8.8.8.8.8.8.",
"8.8.8.8.8.8.> > > > > > > > # > > # J 7.7.7.7.7.7.7.7.7.7.7.7.7.7.7.7.7.7.7.7.4.<.;.[ g O X X X X X . . . .         8.8.8.8.8.8.",
"8.8.8.8.8.8.8.> > > > > > # > # # # d 7.7.7.7.7.7.7.7.7.7.7.7.7.7.7.7.7.7.7.7.7.7.7.7.7.7.[ O . .   X . .     .   8.8.8.8.8.8.8.",
"8.8.8.8.8.8.8.8.> > > > # > # # = # # *.7.7.7.7.7.7.7.7.7.7.7.7.7.7.7.7.7.7.7.7.7.7.7.7.7.7.5.8 . X . .     .   8.8.8.8.8.8.8.8.",
"8.8.8.8.8.8.8.8.8.> # > > # # > # # # - +.7.7.7.7.7.7.7.7.7.7.7.7.7.7.7.7.7.7.7.7.7.7.7.7.7.7.6.*   .         8.8.8.8.8.8.8.8.8.",
"8.8.8.8.8.8.8.8.8.8.> # # > # # # # # @ # S 7.7.7.7.7.7.7.7.7.7.7.7.7.7.7.7.7.7.7.7.7.7.7.7.7.7.:.      .   8.8.8.8.8.8.8.8.8.8.",
"8.8.8.8.8.8.8.8.8.8.8.> # # > # # # # # # } 7.5.e p G R ] O.%.;.:.<.2.5.5.7.7.7.7.7.7.7.7.7.7.7.7.9   .   8.8.8.8.8.8.8.8.8.8.8.",
"8.8.8.8.8.8.8.8.8.8.8.8.# # = # # @ # # [ 7.7.r @ + + + + o + + o o o o o o X o % 0 h ` <.7.7.7.7.| .   8.8.8.8.8.8.8.8.8.8.8.8.",
"8.8.8.8.8.8.8.8.8.8.8.8.8.= # # # # @ _ 7.7.T @ @ @ + + + + + o + o o o X X X X X X X . . 9 6.7.7.<.  8.8.8.8.8.8.8.8.8.8.8.8.8.",
"8.8.8.8.8.8.8.8.8.8.8.8.8.8.8.# # # ~ 7.7.,.@ + + + + + + o + o o o o X X X X X X . X . . . ) 7.7.2.8.8.8.8.8.8.8.8.8.8.8.8.8.8.",
"8.8.8.8.8.8.8.8.8.8.8.8.8.8.8.8.# U 7.7.7.f @ + + + + + + o + X o X X o X X X X X . . . . . f 7.8.8.8.8.8.8.8.8.8.8.8.8.8.8.8.8.",
"8.8.8.8.8.8.8.8.8.8.8.8.8.8.8.8.8.3.7.7.7.@ + + + + + + + X + + o X X X X X X X . X . X . . 8.8.8.8.8.8.8.8.8.8.8.8.8.8.8.8.8.8.",
"8.8.8.8.8.8.8.8.8.8.8.8.8.8.8.8.8.8.8.8.2.@ @ @ + + + o o + X X o o X X X X X X . X . . 8.8.8.8.8.8.8.8.8.8.8.8.8.8.8.8.8.8.8.8.",
"8.8.8.8.8.8.8.8.8.8.8.8.8.8.8.8.8.8.8.8.8.8.8.+ + + o + + X o o o X o X X X . X X 8.8.8.8.8.8.8.8.8.8.8.8.8.8.8.8.8.8.8.8.8.8.8.",
"8.8.8.8.8.8.8.8.8.8.8.8.8.8.8.8.8.8.8.8.8.8.8.8.8.8.8.8.8.o o o o X X X 8.8.8.8.8.8.8.8.8.8.8.8.8.8.8.8.8.8.8.8.8.8.8.8.8.8.8.8."
};
