/* XPM */
static char *_542770713328[] = {
/* columns rows colors chars-per-pixel */
"32 32 202 2 ",
"   c #006796",
".  c #006896",
"X  c #006897",
"o  c #006997",
"O  c #006A98",
"+  c #006B99",
"@  c #006B9A",
"#  c #006C9A",
"$  c #006D9B",
"%  c #006E9C",
"&  c #006F9E",
"*  c #046F9D",
"=  c #00709F",
"-  c #0A709C",
";  c #08739F",
":  c #0071A0",
">  c #0072A0",
",  c #0073A2",
"<  c #0074A3",
"1  c #0075A4",
"2  c #0275A4",
"3  c #0176A4",
"4  c #0076A5",
"5  c #0077A6",
"6  c #0078A7",
"7  c #0079A8",
"8  c #007BAA",
"9  c #007CAB",
"0  c #017DAB",
"q  c #007DAC",
"w  c #007EAD",
"e  c #037EAC",
"r  c #007EAE",
"t  c #007FAE",
"y  c #047FAD",
"u  c #197BA5",
"i  c #107EAA",
"p  c #0080AF",
"a  c #0981AE",
"s  c #1884AE",
"d  c #0081B0",
"f  c #0082B2",
"g  c #0083B3",
"h  c #0084B3",
"j  c #0085B5",
"k  c #0185B5",
"l  c #0086B6",
"z  c #0087B7",
"x  c #0685B4",
"c  c #0788B7",
"v  c #0089B9",
"b  c #008ABA",
"n  c #008BBB",
"m  c #0589B8",
"M  c #0689B8",
"N  c #008DBD",
"B  c #008EBE",
"V  c #008FBF",
"C  c #0A8FBD",
"Z  c #1186B2",
"A  c #1487B3",
"S  c #168CB7",
"D  c #1D8AB4",
"F  c #1D8CB5",
"G  c #178DB9",
"H  c #158EB9",
"J  c #0F92BF",
"K  c #1091BE",
"L  c #1191BE",
"P  c #238AB2",
"I  c #258CB4",
"U  c #248EB6",
"Y  c #3B8DB1",
"T  c #2D94BB",
"R  c #2895BC",
"E  c #3392B8",
"W  c #3494BA",
"Q  c #3197BE",
"!  c #329ABF",
"~  c #0090C1",
"^  c #0290C0",
"/  c #0092C2",
"(  c #0093C3",
")  c #0591C0",
"_  c #0094C5",
"`  c #0095C6",
"'  c #0096C7",
"]  c #0097C7",
"[  c #0098C9",
"{  c #0099CA",
"}  c #009ACA",
"|  c #009ACB",
" . c #009BCB",
".. c #009BCC",
"X. c #009CCD",
"o. c #1697C3",
"O. c #1297C4",
"+. c #1F99C3",
"@. c #2098C2",
"#. c #2198C2",
"$. c #299AC3",
"%. c #2F99C0",
"&. c #329DC4",
"*. c #399EC3",
"=. c #29A0C8",
"-. c #2FA0C8",
";. c #30A0C7",
":. c #3DA0C4",
">. c #419DC0",
",. c #4BA2C3",
"<. c #43ACCF",
"1. c #4CA9CA",
"2. c #60ADCA",
"3. c #71AEC8",
"4. c #68B1CD",
"5. c #70B3CE",
"6. c #69BDD9",
"7. c #70BCD7",
"8. c #74BCD7",
"9. c #79C0D9",
"0. c #79C1DA",
"q. c #7DC5DE",
"w. c #80BED5",
"e. c #8AC1D7",
"r. c #84C1D8",
"t. c #87C6DD",
"y. c #89C3DA",
"u. c #89C5DA",
"i. c #94C0D3",
"p. c #97C2D5",
"a. c #91C4D9",
"s. c #94CADD",
"d. c #99C9DB",
"f. c #9CCCDE",
"g. c #8CCCE1",
"h. c #95CFE3",
"j. c #98CDE0",
"k. c #9ACFE2",
"l. c #9DD0E2",
"z. c #9DD3E6",
"x. c #A2CFE0",
"c. c #A7D0E0",
"v. c #A2D3E4",
"b. c #AED8E7",
"n. c #ABD8E8",
"m. c #B4D7E5",
"M. c #B7D9E6",
"N. c #B7DAE7",
"B. c #B8D9E6",
"V. c #C0DFEB",
"C. c #C0E1ED",
"Z. c #C5E3EE",
"A. c #CAE3ED",
"S. c #D6E8EF",
"D. c #D8E8EF",
"F. c #CFE9F2",
"G. c #D0E8F1",
"H. c #D4EAF2",
"J. c #D5EBF3",
"K. c #D4EBF4",
"L. c #D9ECF3",
"P. c #DAECF3",
"I. c #DFEDF2",
"U. c #D9EEF5",
"Y. c #DFEFF5",
"T. c #DDF0F6",
"R. c #E1EFF5",
"E. c #E2F0F5",
"W. c #E3F0F5",
"Q. c #E1F0F6",
"!. c #E0F1F6",
"~. c #E0F1F7",
"^. c #E3F1F6",
"/. c #E4F2F7",
"(. c #E7F4F8",
"). c #E8F3F8",
"_. c #EBF6F9",
"`. c #EFF6F9",
"'. c #ECF6FA",
"]. c #EFF7FA",
"[. c #EEF7FB",
"{. c #F2F7FA",
"}. c #F3F9FB",
"|. c #F4F9FB",
" X c #F5FAFB",
".X c #F4FAFC",
"XX c #F6FBFC",
"oX c #F7FBFC",
"OX c #F7FBFD",
"+X c #F8FBFC",
"@X c #F9FCFD",
"#X c #FAFCFD",
"$X c #FAFDFD",
"%X c #FAFDFE",
"&X c #FBFDFE",
"*X c #FCFDFE",
"=X c #FCFEFE",
"-X c #FDFEFE",
";X c #FEFEFF",
":X c #FEFFFF",
">X c white",
",X c None",
/* pixels */
",X,X,X,X,X,X,X,X,X,X,X,X,X,X' ' ( ( ,X,X,X,X,X,X,X,X,X,X,X,X,X,X",
",X,X,X,X,X,X,X,X,X,X . .[  .' ' ' ( ( ( V V ,X,X,X,X,X,X,X,X,X,X",
",X,X,X,X,X,X,X,X......[ [ ' ' ( ( ( V V =.g.h.#.,X,X,X,X,X,X,X,X",
",X,X,X,X,X,XX.X... . .[ ' ' ( ( ( ~ V <..XK.;X@X$.l ,X,X,X,X,X,X",
",X,X,X,X,XX.X.X. .[ [ [ ( ( ( ( V V V z.J v #.;Xv.l g ,X,X,X,X,X",
",X,X,X,XX.X.X. .[ [ [ ( ( ( ( ~ V V V +.v v l K.b.l d d ,X,X,X,X",
",X,X,XX..... . .[ [ [ ( ( ( V V n V v v v z l /.1.d d t t ,X,X,X",
",X,X,X.... . .[ [ ` ( ( ( ~ V V V v v v z l &.H.d d t t t ,X,X,X",
",X,X..X. .[ [ ' ' ( ( ( ( V V V V v v z l c Z.G d d t 9 9 8 ,X,X",
",X,X.... .[ ' ' ( ( ( ~ V V o.&.&.K z l l l.! p t t 9 8 8 8 ,X,X",
",X[ .. .[ ' ' ( ( ( ~ ) q.[.;X'.@X;X_.8.f.*.p p %.A 9 8 8 5 5 ,X",
",X . .[ ' ' ( ( ( ~ O.~.;XF.K v m l.;X;X.XY.~.).{.9 8 8 5 5 5 ,X",
",X .[ ' ' ( ( ~ ~ V T.;X@XC v l l l G.;X;X;X;X;Xf.8 6 6 5 5 , ,X",
",X[ ' ' ' ( ( ~ V 6.;X;Xn.v l l l h :.;X;X;XF 9 8 8 6 6 < < , ,X",
"' ' ' ( ( ( V V V U.;X;X0.l l l h h p ;X;X;Xw.9 6 6 6 < < < , = ",
"' ' ( ( ( ~ V V n #X;X;X7.l l h d p p ~.;X;XN.6 6 5 < < , = = = ",
"( ( ( ( ( V V V v ;X;X;Xt.l l d d p t P.;X;XB.6 5 < < < = = = = ",
"( ( ( ~ V V v V n ~.;X;XC.h d d p t 9 ~.;X;Xe.6 < < < = = = # = ",
",X( ~ V V v n v v 0.;X;X@Xx p p t 9 y ;X;X;XP < < < = = = = # ,X",
",X~ V V V v v v z c _.;X;Xu.p t 9 9 2.;X;Xa.< < < = = = # # # ,X",
",XV V v n v v z l l S ~.;X;Xu.Z a 4.;X;Xd.< < < , % % % # # # ,X",
",XV V v v v v l l h d R @XP. X;X;X|.B.E 5 < < = = , % % # + O ,X",
",X,Xv v v z l l h h ! @Xr.9 9 9 6 6 5 < < < = = % % % O O o ,X,X",
",X,Xv v l l l h d S @X;Xa 9 9 6 6 6 < < < = = = % % O O o o ,X,X",
",X,X,Xv l l d d p s.;X;Xv.,.W P s i < < = = = # % O O . . ,X,X,X",
",X,X,Xl l h g d t C.;X;X;X;X;X;X;X;X;X;X|.S.3.* @ O . . . ,X,X,X",
",X,X,X,Xg d d d t T @X;X;X;X;X;X;X;X;X;X;X;X;XR.-       ,X,X,X,X",
",X,X,X,X,Xd d t 9 9 >.;Xm.A.W.`.|.;X;X;X;X;X;X;Xw.-   ,X,X,X,X,X",
",X,X,X,X,X,Xt t 9 U @X5.6 < < , = = = ; u Y p.;X X. ,X,X,X,X,X,X",
",X,X,X,X,X,X,X,XD |.R.5 < < , , = = = # # O O D.#X,X,X,X,X,X,X,X",
",X,X,X,X,X,X,X,X,X;Xc.5 < < = = = % # # O O ,X,X,X,X,X,X,X,X,X,X",
",X,X,X,X,X,X,X,X,X,X,X,X,X,X, = % % ,X,X,X,X,X,X,X,X,X,X,X,X,X,X"
};
