<?xml version="1.0" encoding="utf-8"?>
<!-- Generator: Adobe Illustrator 16.0.0, SVG Export Plug-In . SVG Version: 6.00 Build 0)  -->
<!DOCTYPE svg PUBLIC "-//W3C//DTD SVG 1.1//EN" "http://www.w3.org/Graphics/SVG/1.1/DTD/svg11.dtd">
<svg version="1.1"
	 id="Ebene_1" xmlns:svg="http://www.w3.org/2000/svg" xmlns:rdf="http://www.w3.org/1999/02/22-rdf-syntax-ns#" xmlns:cc="http://creativecommons.org/ns#" xmlns:dc="http://purl.org/dc/elements/1.1/"
	 xmlns="http://www.w3.org/2000/svg" xmlns:xlink="http://www.w3.org/1999/xlink" x="0px" y="0px" width="1200px" height="1200px"
	 viewBox="0 0 1200 1200" enable-background="new 0 0 1200 1200" xml:space="preserve">
<linearGradient id="SVGID_1_" gradientUnits="userSpaceOnUse" x1="165.8755" y1="341.5493" x2="682.7063" y2="858.3801">
	<stop  offset="0" style="stop-color:#34AEC5"/>
	<stop  offset="1" style="stop-color:#377E95"/>
</linearGradient>
<path fill="url(#SVGID_1_)" d="M682.741,341.513C613.755,272.526,521.962,234.47,424.326,234.47
	c-97.637,0-189.429,38.057-258.416,107.043C96.924,410.5,58.867,502.292,58.867,599.929s37.915,189.429,106.901,258.415
	c68.987,68.987,160.779,107.044,258.416,107.044c97.636,0,189.571-38.057,258.558-107.044
	c68.987-68.986,107.044-160.778,107.044-258.415S751.729,410.5,682.741,341.513z M560.304,645.112H418.34
	c-21.096,0-35.349-17.675-35.349-35.349V396.531c0-21.237,14.11-35.348,35.349-35.348c21.237,0,35.349,14.111,35.349,35.348v177.884
	h106.615c21.238,0,35.349,14.11,35.349,35.349C595.652,631.001,581.542,645.112,560.304,645.112z"/>
</svg>
