<?xml version="1.0" encoding="utf-8"?>
<!-- Generator: Adobe Illustrator 16.0.0, SVG Export Plug-In . SVG Version: 6.00 Build 0)  -->
<!DOCTYPE svg PUBLIC "-//W3C//DTD SVG 1.1//EN" "http://www.w3.org/Graphics/SVG/1.1/DTD/svg11.dtd">
<svg version="1.1"
	 id="svg2" xmlns:svg="http://www.w3.org/2000/svg" xmlns:rdf="http://www.w3.org/1999/02/22-rdf-syntax-ns#" xmlns:cc="http://creativecommons.org/ns#" xmlns:dc="http://purl.org/dc/elements/1.1/"
	 xmlns="http://www.w3.org/2000/svg" xmlns:xlink="http://www.w3.org/1999/xlink" x="0px" y="0px" width="92px" height="92px"
	 viewBox="0 0 92 92" enable-background="new 0 0 92 92" xml:space="preserve">
<linearGradient id="SVGID_1_" gradientUnits="userSpaceOnUse" x1="16.0537" y1="16.1084" x2="75.8664" y2="75.9211">
	<stop  offset="0" style="stop-color:#34AEC5"/>
	<stop  offset="1" style="stop-color:#377E95"/>
</linearGradient>
<path fill="url(#SVGID_1_)" d="M77.229,42.205c-5.367,0-9.584,3.258-11.5,7.666h-8.15c0.419-1.242,0.65-2.548,0.65-3.871
	c0-3.22-1.307-6.363-3.592-8.617c-0.907-0.934-1.958-1.693-3.092-2.28v-8.231c0-2.108,1.916-3.833,3.833-3.833h10.351
	c1.916,4.409,6.133,7.667,11.5,7.667c7.283,0,13.416-6.019,13.416-13.417c0-7.437-6.133-13.417-13.416-13.417
	c-5.367,0-9.584,3.258-11.5,7.667H55.378c-8.434,0-15.333,6.862-15.333,15.333v4.312c-1.218-0.301-2.495-0.478-3.833-0.478h-9.967
	c-1.917-4.408-6.133-7.667-11.5-7.667c-7.667,0-13.417,6.095-13.417,13.417s5.75,13.416,13.417,13.416
	c5.367,0,9.583-3.258,11.5-7.666h8.109c-0.401,1.224-0.621,2.509-0.621,3.803c0,3.22,1.303,6.401,3.604,8.679
	c0.802,0.81,1.718,1.488,2.708,2.035v8.368c0,2.108-1.917,3.834-3.833,3.834h-9.967c-1.917-4.408-6.133-7.667-11.5-7.667
	c-7.667,0-13.417,6.095-13.417,13.417c0,7.321,5.75,13.455,13.417,13.455c5.367,0,9.2-3.259,11.5-7.629h9.967
	c8.816,0,15.333-6.938,15.333-15.334v-4.3c1.229,0.318,2.508,0.505,3.833,0.505h10.351c1.916,4.408,6.133,7.667,11.5,7.667
	c7.283,0,13.416-5.979,13.416-13.417C90.645,48.223,84.512,42.205,77.229,42.205z M43.878,26.872c0-6.325,5.366-11.5,11.5-11.5
	h12.649l0.384-1.303c1.149-3.68,4.601-6.363,8.817-6.363c4.982,0,9.582,4.293,9.582,9.583c0,5.252-4.6,9.583-9.582,9.583
	c-4.217,0-7.668-2.683-8.817-6.363l-0.384-1.303H55.378c-4.217,0-7.667,3.412-7.667,7.667v7.007
	c-0.565-0.082-1.136-0.138-1.711-0.138c-0.169,0-0.335,0.018-0.503,0.025c-0.515-0.388-1.052-0.75-1.619-1.071V26.872z
	 M36.211,38.372H23.944l-0.383,1.303c-1.15,3.719-4.6,6.363-8.816,6.363c-5.367,0-9.583-4.255-9.583-9.583
	c0-5.329,4.217-9.583,9.583-9.583c4.217,0,7.667,2.684,8.816,6.363l0.383,1.303h12.267c1.414,0,2.711,0.26,3.882,0.728
	c-1.009,0.556-1.941,1.25-2.756,2.079c-0.332,0.326-0.636,0.675-0.925,1.037C36.345,38.379,36.28,38.372,36.211,38.372z
	 M47.711,65.166c0,6.402-4.983,11.5-11.5,11.5H25.478h-1.534l-0.383,1.266c-1.15,3.68-4.6,6.363-8.816,6.363
	c-5.367,0-9.583-4.293-9.583-9.621c0-5.329,4.217-9.584,9.583-9.584c4.217,0,7.667,2.684,8.816,6.363l0.383,1.304h12.267
	c4.216,0,7.667-3.412,7.667-7.667v-7.021c0.697,0.121,1.406,0.194,2.122,0.194c0.051,0,0.102-0.007,0.152-0.008
	c0.498,0.376,1.017,0.725,1.559,1.039V65.166z M77.229,65.205c-4.217,0-7.668-2.684-8.817-6.363l-0.384-1.304H55.378
	c-1.303,0-2.535-0.257-3.675-0.716c1.073-0.573,2.064-1.305,2.934-2.182c0.298-0.297,0.578-0.61,0.842-0.936h12.549l0.384-1.303
	c1.149-3.681,4.601-6.364,8.817-6.364c4.982,0,9.582,4.332,9.582,9.583C86.811,60.912,82.211,65.205,77.229,65.205z"/>
</svg>
