<?xml version="1.0" encoding="utf-8"?>
<!-- Generator: Adobe Illustrator 16.0.0, SVG Export Plug-In . SVG Version: 6.00 Build 0)  -->
<!DOCTYPE svg PUBLIC "-//W3C//DTD SVG 1.1//EN" "http://www.w3.org/Graphics/SVG/1.1/DTD/svg11.dtd">
<svg version="1.1"
	 id="svg2" xmlns:svg="http://www.w3.org/2000/svg" xmlns:rdf="http://www.w3.org/1999/02/22-rdf-syntax-ns#" xmlns:cc="http://creativecommons.org/ns#" xmlns:dc="http://purl.org/dc/elements/1.1/"
	 xmlns="http://www.w3.org/2000/svg" xmlns:xlink="http://www.w3.org/1999/xlink" x="0px" y="0px" width="92px" height="92px"
	 viewBox="0 0 92 92" enable-background="new 0 0 92 92" xml:space="preserve">
<g id="g4142" transform="matrix(0,1,1,0,-106.3,-36.15)">
	<g id="g4144" transform="matrix(-1,0,0,1,-16.98,0.8136)">
	</g>
</g>
<linearGradient id="SVGID_1_" gradientUnits="userSpaceOnUse" x1="15.834" y1="15.874" x2="75.8814" y2="75.9215">
	<stop  offset="0" style="stop-color:#34AEC5"/>
	<stop  offset="1" style="stop-color:#377E95"/>
</linearGradient>
<path fill="url(#SVGID_1_)" d="M77.242,42.205c-5.367,0-9.584,3.258-11.5,7.666h-8.217c0.469-1.238,0.741-2.543,0.741-3.871
	c0-3.22-1.533-6.325-3.833-8.594c-0.691-0.885-1.537-1.605-2.492-2.171v-8.363c0-1.878,1.533-3.45,3.45-3.45h9.583
	c2.301,4.485,6.9,7.667,12.268,7.667c7.283,0,13.799-6.171,13.799-13.8c0-7.667-6.516-13.8-13.799-13.8
	c-5.367,0-9.967,3.182-12.268,7.667h-9.583c-8.433,0-15.717,7.053-15.717,15.716v3.836c-1.108-0.246-2.259-0.386-3.45-0.386h-9.2
	c-2.3-4.485-6.9-7.667-12.267-7.667c-7.667,0-13.8,6.248-13.8,13.8c0,7.513,6.133,13.8,13.8,13.8c5.367,0,9.967-3.144,12.267-7.667
	h7.279c-0.365,1.1-0.571,2.248-0.571,3.412c0,3.22,1.533,6.325,3.833,8.587c0.596,0.763,1.313,1.393,2.108,1.918v8.585
	c0,1.879-1.533,3.45-3.45,3.45h-9.2c-2.3-4.485-6.9-7.667-12.267-7.667c-7.667,0-13.8,6.287-13.8,13.801
	c0,7.551,6.133,13.838,13.8,13.838c5.367,0,9.967-3.144,11.883-7.629h9.583c8.816,0,15.716-7.129,15.716-15.716v-4.202
	c1.111,0.257,2.263,0.406,3.45,0.406h10.351c1.916,4.409,6.133,7.668,11.5,7.668c7.283,0,13.416-5.98,13.416-13.418
	C90.658,48.224,84.525,42.205,77.242,42.205z M77.242,65.205c-4.217,0-7.667-2.684-8.817-6.363l-0.384-1.303H55.392
	c-1.218,0-2.373-0.231-3.45-0.635v-0.146c0.955-0.566,1.801-1.286,2.492-2.171c0.288-0.283,0.563-0.58,0.826-0.888
	c0.045,0.001,0.087,0.006,0.132,0.006h12.649l0.384-1.303c1.15-3.681,4.601-6.364,8.817-6.364c4.982,0,9.583,4.332,9.583,9.583
	C86.825,60.912,82.225,65.205,77.242,65.205z"/>
</svg>
