<?xml version="1.0" encoding="utf-8"?>
<!-- Generator: Adobe Illustrator 16.0.0, SVG Export Plug-In . SVG Version: 6.00 Build 0)  -->
<!DOCTYPE svg PUBLIC "-//W3C//DTD SVG 1.1//EN" "http://www.w3.org/Graphics/SVG/1.1/DTD/svg11.dtd">
<svg version="1.1"
	 id="svg2" xmlns:svg="http://www.w3.org/2000/svg" xmlns:rdf="http://www.w3.org/1999/02/22-rdf-syntax-ns#" xmlns:cc="http://creativecommons.org/ns#" xmlns:dc="http://purl.org/dc/elements/1.1/"
	 xmlns="http://www.w3.org/2000/svg" xmlns:xlink="http://www.w3.org/1999/xlink" x="0px" y="0px" width="92px" height="92px"
	 viewBox="0 0 92 92" enable-background="new 0 0 92 92" xml:space="preserve">
<linearGradient id="SVGID_1_" gradientUnits="userSpaceOnUse" x1="16.2075" y1="16.1079" x2="76.0202" y2="75.9206">
	<stop  offset="0" style="stop-color:#34AEC5"/>
	<stop  offset="1" style="stop-color:#377E95"/>
</linearGradient>
<path fill="url(#SVGID_1_)" d="M77.381,42.205c-5.366,0-9.583,3.258-11.5,7.666h-8.355c0.469-1.238,0.741-2.543,0.741-3.871
	c0-3.22-1.533-6.325-3.833-8.587c-0.657-0.84-1.457-1.526-2.353-2.079v-8.463c0-1.878,1.534-3.45,3.45-3.45h9.584
	c2.299,4.485,6.899,7.667,12.266,7.667c7.283,0,13.801-6.172,13.801-13.8c0-7.667-6.518-13.8-13.801-13.8
	c-5.366,0-9.967,3.182-12.266,7.667h-9.584c-8.434,0-15.717,7.054-15.717,15.717v4.214c-1.102-0.242-2.252-0.38-3.45-0.38h-9.967
	c-1.917-4.408-6.133-7.667-11.5-7.667c-7.667,0-13.417,6.095-13.417,13.417s5.75,13.416,13.417,13.416
	c5.367,0,9.583-3.258,11.5-7.666h8.046c-0.45,1.215-0.71,2.494-0.71,3.795c0,3.22,1.533,6.325,3.833,8.586
	c0.631,0.808,1.396,1.469,2.248,2.011v8.493c0,1.879-1.533,3.45-3.45,3.45h-9.2c-2.3-4.485-6.9-7.667-12.267-7.667
	c-7.667,0-13.8,6.287-13.8,13.801c0,7.551,6.134,13.838,13.8,13.838c5.367,0,9.967-3.144,11.883-7.629h9.583
	c8.816,0,15.716-7.129,15.716-15.717v-4.201c1.111,0.257,2.263,0.406,3.45,0.406h10.35c1.917,4.408,6.134,7.667,11.5,7.667
	c7.283,0,13.417-5.979,13.417-13.417C90.798,48.223,84.664,42.205,77.381,42.205z M36.365,38.372H24.098l-0.383,1.303
	c-1.15,3.719-4.6,6.363-8.816,6.363c-5.367,0-9.583-4.255-9.583-9.583c0-5.329,4.217-9.583,9.583-9.583
	c4.217,0,7.667,2.684,8.816,6.363l0.383,1.303h12.267c1.244,0,2.393,0.209,3.45,0.576v0.289c-0.853,0.542-1.617,1.203-2.248,2.01
	c-0.313,0.309-0.609,0.635-0.893,0.973C36.571,38.381,36.47,38.372,36.365,38.372z M77.381,65.205c-4.217,0-7.666-2.684-8.816-6.363
	l-0.383-1.304h-12.65c-1.219,0-2.373-0.23-3.45-0.635v-0.238c0.896-0.553,1.695-1.238,2.353-2.079
	c0.29-0.285,0.566-0.583,0.831-0.894c0.089,0.004,0.176,0.013,0.267,0.013h12.65l0.383-1.303c1.15-3.681,4.6-6.364,8.816-6.364
	c4.984,0,9.584,4.332,9.584,9.583C86.965,60.912,82.365,65.205,77.381,65.205z"/>
</svg>
