<?xml version="1.0" encoding="utf-8"?>
<!-- Generator: Adobe Illustrator 16.0.0, SVG Export Plug-In . SVG Version: 6.00 Build 0)  -->
<!DOCTYPE svg PUBLIC "-//W3C//DTD SVG 1.1//EN" "http://www.w3.org/Graphics/SVG/1.1/DTD/svg11.dtd">
<svg version="1.1"
	 id="svg2" xmlns:svg="http://www.w3.org/2000/svg" xmlns:rdf="http://www.w3.org/1999/02/22-rdf-syntax-ns#" xmlns:cc="http://creativecommons.org/ns#" xmlns:dc="http://purl.org/dc/elements/1.1/"
	 xmlns="http://www.w3.org/2000/svg" xmlns:xlink="http://www.w3.org/1999/xlink" x="0px" y="0px" width="92px" height="92px"
	 viewBox="0 0 92 92" enable-background="new 0 0 92 92" xml:space="preserve">
<linearGradient id="SVGID_1_" gradientUnits="userSpaceOnUse" x1="15.8193" y1="15.873" x2="76.1016" y2="76.1553">
	<stop  offset="0" style="stop-color:#34AEC5"/>
	<stop  offset="1" style="stop-color:#377E95"/>
</linearGradient>
<path fill="url(#SVGID_1_)" d="M77.229,41.822c-5.367,0-9.967,3.182-12.268,7.667h-7.287c0.381-1.123,0.593-2.297,0.593-3.488
	c0-3.22-1.533-6.325-3.833-8.587c-0.695-0.89-1.545-1.612-2.506-2.18v-8.362c0-1.878,1.533-3.45,3.45-3.45h9.583
	c2.301,4.485,6.9,7.667,12.268,7.667c7.283,0,13.799-6.172,13.799-13.8c0-7.667-6.516-13.8-13.799-13.8
	c-5.367,0-9.967,3.182-12.268,7.667h-9.583c-8.434,0-15.717,7.054-15.717,15.717v3.836c-1.108-0.246-2.259-0.386-3.45-0.386h-9.2
	c-2.3-4.485-6.9-7.667-12.267-7.667c-7.667,0-13.8,6.249-13.8,13.8c0,7.513,6.134,13.8,13.8,13.8c5.367,0,9.967-3.144,12.267-7.667
	h7.293c-0.365,1.1-0.571,2.248-0.571,3.412c0,3.22,1.533,6.325,3.833,8.587c0.592,0.758,1.305,1.385,2.095,1.908v8.595
	c0,1.879-1.533,3.45-3.45,3.45h-9.2c-2.3-4.485-6.9-7.667-12.267-7.667c-7.667,0-13.8,6.287-13.8,13.801
	c0,7.551,6.134,13.838,13.8,13.838c5.367,0,9.967-3.144,11.883-7.629h9.583c8.816,0,15.716-7.129,15.716-15.717v-3.823
	c1.118,0.261,2.271,0.412,3.45,0.412h9.583c2.301,4.485,6.9,7.667,12.268,7.667c7.283,0,13.799-6.134,13.799-13.801
	C91.027,47.993,84.512,41.822,77.229,41.822z"/>
</svg>
