<?xml version="1.0" encoding="utf-8"?>
<!-- Generator: Adobe Illustrator 16.0.0, SVG Export Plug-In . SVG Version: 6.00 Build 0)  -->
<!DOCTYPE svg PUBLIC "-//W3C//DTD SVG 1.1//EN" "http://www.w3.org/Graphics/SVG/1.1/DTD/svg11.dtd">
<svg version="1.1"
	 id="svg2" xmlns:svg="http://www.w3.org/2000/svg" xmlns:rdf="http://www.w3.org/1999/02/22-rdf-syntax-ns#" xmlns:cc="http://creativecommons.org/ns#" xmlns:dc="http://purl.org/dc/elements/1.1/"
	 xmlns="http://www.w3.org/2000/svg" xmlns:xlink="http://www.w3.org/1999/xlink" x="0px" y="0px" width="92px" height="92px"
	 viewBox="0 0 92 92" enable-background="new 0 0 92 92" xml:space="preserve">
<linearGradient id="SVGID_1_" gradientUnits="userSpaceOnUse" x1="16.1714" y1="15.9907" x2="75.9841" y2="75.8034">
	<stop  offset="0" style="stop-color:#34AEC5"/>
	<stop  offset="1" style="stop-color:#377E95"/>
</linearGradient>
<path fill="url(#SVGID_1_)" d="M77.229,42.205c-5.367,0-9.584,3.258-11.5,7.666h-8.115c0.412-1.246,0.639-2.554,0.639-3.871
	c0-3.22-1.289-6.402-3.569-8.656c-0.815-0.822-1.749-1.511-2.755-2.064v-8.409c0-1.878,1.533-3.45,3.45-3.45h9.583
	c2.301,4.485,6.9,7.667,12.268,7.667c7.283,0,13.799-6.172,13.799-13.8c0-7.667-6.516-13.8-13.799-13.8
	c-5.367,0-9.967,3.182-12.268,7.667h-9.583c-8.434,0-15.717,7.054-15.717,15.717v4.214c-1.102-0.242-2.252-0.38-3.45-0.38h-9.967
	c-1.917-4.408-6.133-7.667-11.5-7.667c-7.667,0-13.417,6.095-13.417,13.417s5.75,13.416,13.417,13.416
	c5.367,0,9.583-3.258,11.5-7.666h8.109c-0.401,1.224-0.621,2.509-0.621,3.803c0,3.22,1.303,6.401,3.604,8.679
	c0.802,0.81,1.718,1.488,2.708,2.035v8.368c0,2.108-1.917,3.834-3.833,3.834h-9.967c-1.917-4.408-6.133-7.667-11.5-7.667
	c-7.667,0-13.417,6.095-13.417,13.417c0,7.321,5.75,13.455,13.417,13.455c5.367,0,9.2-3.259,11.5-7.629h9.967
	c8.816,0,15.333-6.938,15.333-15.334v-4.3c1.229,0.318,2.508,0.505,3.833,0.505h10.351c1.916,4.408,6.133,7.667,11.5,7.667
	c7.283,0,13.416-5.979,13.416-13.417C90.645,48.223,84.512,42.205,77.229,42.205z M36.211,38.372H23.944l-0.383,1.303
	c-1.15,3.719-4.6,6.363-8.816,6.363c-5.367,0-9.583-4.255-9.583-9.583c0-5.329,4.217-9.583,9.583-9.583
	c4.217,0,7.667,2.684,8.816,6.363l0.383,1.303h12.267c1.244,0,2.393,0.209,3.45,0.576v0.411c-0.841,0.51-1.628,1.111-2.324,1.819
	c-0.332,0.326-0.636,0.675-0.925,1.037C36.345,38.379,36.28,38.372,36.211,38.372z M47.711,65.166c0,6.402-4.983,11.5-11.5,11.5
	H25.478h-1.534l-0.383,1.266c-1.15,3.68-4.6,6.363-8.816,6.363c-5.367,0-9.583-4.293-9.583-9.621c0-5.329,4.217-9.584,9.583-9.584
	c4.217,0,7.667,2.684,8.816,6.363l0.383,1.304h12.267c4.216,0,7.667-3.412,7.667-7.667v-7.021c0.697,0.121,1.406,0.194,2.122,0.194
	c0.051,0,0.102-0.007,0.153-0.008c0.498,0.377,1.016,0.725,1.558,1.039V65.166z M77.229,65.205c-4.217,0-7.668-2.684-8.817-6.363
	l-0.384-1.304H55.378c-1.285,0-2.502-0.252-3.628-0.699c1.074-0.565,2.066-1.289,2.933-2.16c0.309-0.308,0.595-0.635,0.866-0.974
	h12.479l0.384-1.303c1.149-3.681,4.601-6.364,8.817-6.364c4.982,0,9.582,4.332,9.582,9.583
	C86.811,60.912,82.211,65.205,77.229,65.205z"/>
</svg>
