<?xml version="1.0" encoding="utf-8"?>
<!-- Generator: Adobe Illustrator 16.0.0, SVG Export Plug-In . SVG Version: 6.00 Build 0)  -->
<!DOCTYPE svg PUBLIC "-//W3C//DTD SVG 1.1//EN" "http://www.w3.org/Graphics/SVG/1.1/DTD/svg11.dtd">
<svg version="1.1"
	 id="svg2" xmlns:inkscape="http://www.inkscape.org/namespaces/inkscape" xmlns:svg="http://www.w3.org/2000/svg" xmlns:sodipodi="http://sodipodi.sourceforge.net/DTD/sodipodi-0.dtd" xmlns:rdf="http://www.w3.org/1999/02/22-rdf-syntax-ns#" xmlns:cc="http://creativecommons.org/ns#" xmlns:dc="http://purl.org/dc/elements/1.1/" sodipodi:docname="bitcoin-logo-noshadow.svg" inkscape:version="0.48.2 r9819"
	 xmlns="http://www.w3.org/2000/svg" xmlns:xlink="http://www.w3.org/1999/xlink" x="0px" y="0px" width="1024px" height="1024px"
	 viewBox="0 0 1024 1024" enable-background="new 0 0 1024 1024" xml:space="preserve">
<g>
	<circle fill="#FFFFFF" cx="477.958" cy="477.996" r="451.924"/>
	<linearGradient id="SVGID_1_" gradientUnits="userSpaceOnUse" x1="177.0518" y1="177.1055" x2="778.5821" y2="778.6358">
		<stop  offset="0" style="stop-color:#34AEC5"/>
		<stop  offset="1" style="stop-color:#377E95"/>
	</linearGradient>
	<path fill="url(#SVGID_1_)" d="M336.154,802.475c-16.611,16.926-32.915,34.16-49.326,51.285c-4.782,2.809-8.698-0.158-12.513-2.193
		c-24.247-12.928-46.981-28.213-67.93-45.957c-39.12-33.139-72.502-71.252-97.795-116.066
		C78.67,636.525,59.947,579.918,54.428,519.102c-5.455-60.061,0.301-118.904,19.678-176.085
		c17.575-51.864,43.633-99.093,79.572-140.68c32.063-37.1,68.652-68.766,111.354-93.093
		c53.416-30.432,110.531-49.329,171.926-54.883c60.065-5.435,118.831,0.576,176.078,19.783
		c15.088,5.062,30.064,10.561,44.286,17.853c2.472,1.268,5.256,2.3,6.593,4.935c0.761,1.49,0.201,2.699-1.891,2.07
		c-11.945-1.421-23.892-2.361-35.82,0.214c-35.612,7.687-54.277,36.615-59.411,69.834c-0.308,1.944-1.434,4.621,2.124,5.249
		c3.372,0.594,5.091-0.996,6.246-4.027c4.997-13.107,12.656-24.276,24.685-31.889c18.069-11.424,37.308-14.008,56.423-3.85
		c19.244,10.229,28.84,27.389,29.633,49.207c1.107,30.154-12.477,55.053-29.041,78.624c-17.57,25.009-38.945,46.74-60.367,68.417
		c-3.896,3.945-6.416,2.219-10.057,0.263c-63.091-33.875-129.006-38.523-194.647-11.517c-60.591,24.924-99.199,71.249-107.8,137.63
		c-9.354,72.16,23.995,133.583,83.798,165.347c1.699,0.906,3.354,1.893,5.986,3.379c-4.921,4.295-9.422,8.172-13.874,12.105
		c-17.59,15.547-35.145,31.158-49.383,49.99c-9.004,11.914-15.693,25.02-19.189,39.664c-4.109,17.23,0.253,32.021,12.658,44.502
		c9.126,9.176,19.724,16.438,30.719,23.129C338.064,797.314,339.969,798.59,336.154,802.475z M899.319,418.709
		c-7.384-54.95-25.721-106.258-53.261-154.364c-25.307-44.188-58.505-81.633-97.021-114.571
		c-12.542-10.729-26.072-20.188-39.874-29.222c-4.758-3.119-4.868-2.95-8.262,0.119c20.363,22.058,24.119,47.535,15.503,75.529
		c-5.823,18.939-16.109,35.51-27.56,51.424c-16.698,23.214-37.014,43.29-56.265,64.282c-9.496,10.357-19.286,20.443-29.97,31.741
		c30.203,0,58.607-0.089,87.02,0.034c15.811,0.065,29.096-4.843,38.137-18.482c1.867-2.833,4.477-3.912,7.104-2.625
		c3.305,1.621,0.813,4.424,0.09,6.547c-6.281,18.486-12.938,36.851-18.855,55.447c-1.892,5.922-4.764,7.572-10.717,7.474
		c-21.149-0.352-42.313-0.136-63.352-0.136c-0.582,2.965,1.151,4.314,2.066,5.934c20.461,36.193,25.497,75.365,17.286,115.177
		c-13.312,64.518-55.248,104.488-116.722,123.924c-45.27,14.303-91.391,12.85-137.242,1.111c-3.156-0.803-6.311-2.428-9.486,0.316
		c-14.919,12.924-28.62,26.803-35.1,46.086c-5.166,15.383,0.776,28.393,15.895,34.688c9.855,4.105,20.303,5.959,30.907,6.992
		c33.101,3.223,66.358,3.064,99.539,4.438c36.823,1.514,73.742,1.867,110.261,7.344c51.02,7.654,89.687,31.355,105.3,83.779
		c4.499,0.803,7.265-2.42,10.267-4.699c24.571-18.672,46.524-40.088,66.744-63.357c36.054-41.492,62.18-88.707,79.757-140.568
		C902.952,549.785,908.201,484.77,899.319,418.709z M438.609,334.415c-31.821,11.619-49.764,35.923-57.736,67.855
		c-9.288,37.211-7.837,74.732-0.799,112.134c5.457,29.021,16.218,55.738,36.38,77.9c41.908,46.051,116.654,33.967,142.188-22.848
		c10.669-23.736,12.711-48.949,13.08-74.469c0.204-15.411-1.12-30.723-3.415-45.915c-5.037-33.396-15.585-64.573-38.188-90.549
		C507.338,332.343,471.152,322.534,438.609,334.415z M651.121,825.453c-26.256-7.221-53.363-8.777-80.357-9.68
		c-65.488-2.191-130.985-3.836-196.065-12.307c-4.12-0.539-6.868,0.783-9.355,3.85c-6.329,7.797-13.206,15.176-19.128,23.258
		c-9.381,12.799-18.569,25.814-22.693,41.527c4.656,6.479,12.364,7.23,18.993,9.461c63.526,21.357,128.647,26.816,194.916,17.832
		c48.839-6.629,95.125-21.654,138.622-44.959c3.031-1.633,7.024-2.766,6.581-7.572C675.98,834.078,663.869,828.961,651.121,825.453z
		"/>
	<linearGradient id="SVGID_2_" gradientUnits="userSpaceOnUse" x1="797.7764" y1="797.6201" x2="158.3979" y2="158.2416">
		<stop  offset="0" style="stop-color:#377E95"/>
		<stop  offset="1" style="stop-color:#34AEC5"/>
	</linearGradient>
	<path opacity="0.6" fill="url(#SVGID_2_)" d="M807.23,787.625c-21.557,23.639-45.996,44.012-72.232,62.244
		c-2.129,1.482-4.279,4.689-7.1,3.168c-2.375-1.281-1.078-4.629-1.029-7.018c0.156-8.129-0.969-16.137-2.016-24.15
		c70.139-51.162,120.723-117.094,150.852-198.693c11.516-31.205,19.313-63.332,23.025-96.215
		c3.275-29.045,3.023-58.312,0.615-87.596c-4.889-59.531-22.803-114.975-51.258-167.111c-13.625-24.954-30.002-48.098-48.783-69.618
		c-26.547-30.433-56.223-57.163-90.035-79.209c-2.139-1.396-4.152-6.357-8.254-2.581c-10.992-10.756-24.119-17.676-38.879-21.67
		c-1.977-3.203-1.951-3.257-4.9-4.668c-31.832-15.195-65.27-25.405-99.76-32.516c-36.326-7.488-73.119-8.22-109.828-6.387
		c-29.373,1.468-58.379,7.139-86.748,15.432c-43.971,12.858-85.154,31.783-122.67,58.066
		c-73.77,51.682-127.109,119.35-158.004,204.305c-12.408,34.134-20.389,69.154-23.502,105.42
		c-4.846,56.418,0.309,111.584,17.273,165.721c16.379,52.262,41.621,99.816,76.479,141.836
		c35.537,42.838,77.395,78.533,127.041,104.48c2.969,1.557,5.871,3.311,9.424,3.068c-4.734,6.217-9.936,12.131-14.049,18.73
		c-3.404,5.463-6.449,5.197-11.488,2.375c-33.561-18.787-64.67-40.893-92.619-67.375C95.402,738.131,48.643,653.717,32.627,553.967
		c-21.865-136.211,10.541-259.208,98.797-365.729c70.602-85.213,161.607-137.842,270.814-155.611
		c131.953-21.465,252.131,8.766,357.248,92.055c89.947,71.277,145.791,164.514,163.859,277.774
		C946.689,548.801,907.4,677.783,807.23,787.625z M675.518,852.361c-25.088,13.564-51.5,23.824-78.787,32.045
		c-29.098,8.764-58.873,14.432-89.068,15.988c-23.006,1.188-46.164,1.148-69.324-0.998c-39.605-3.662-77.686-12.936-114.703-27.121
		c-4.078,8.506-4.668,17.654-4.99,26.848c0.418,1.217,0.793,2.459,1.977,3.203c70.893,25.145,143.609,33.607,218.289,23.621
		c50.488-6.758,98.459-21.709,143.865-44.85c2.545-1.301,4.865-2.385,5.01-5.9c0.389-9.783,1.174-19.578-5.039-28.16
		C681.389,850.238,678.168,850.93,675.518,852.361z"/>
</g>
</svg>
