<?xml version="1.0" encoding="utf-8"?>
<!-- Generator: Adobe Illustrator 16.0.0, SVG Export Plug-In . SVG Version: 6.00 Build 0)  -->
<!DOCTYPE svg PUBLIC "-//W3C//DTD SVG 1.1//EN" "http://www.w3.org/Graphics/SVG/1.1/DTD/svg11.dtd">
<svg version="1.1" id="Ebene_1" xmlns="http://www.w3.org/2000/svg" xmlns:xlink="http://www.w3.org/1999/xlink" x="0px" y="0px"
	 width="1200px" height="1200px" viewBox="0 0 1200 1200" enable-background="new 0 0 1200 1200" xml:space="preserve">
<g>
	<linearGradient id="SVGID_1_" gradientUnits="userSpaceOnUse" x1="227.415" y1="489.251" x2="456.1834" y2="718.0193">
		<stop  offset="0" style="stop-color:#34AEC5"/>
		<stop  offset="1" style="stop-color:#377E95"/>
	</linearGradient>
	<polygon fill="url(#SVGID_1_)" points="391.971,574.843 291.626,574.843 291.626,479.629 237.035,479.629 237.035,727.64 
		291.626,727.64 291.626,620.596 391.971,620.596 391.971,727.64 446.562,727.64 446.562,479.629 391.971,479.629 	"/>
	<linearGradient id="SVGID_2_" gradientUnits="userSpaceOnUse" x1="471.791" y1="502.5762" x2="673.9255" y2="704.7106">
		<stop  offset="0" style="stop-color:#34AEC5"/>
		<stop  offset="1" style="stop-color:#377E95"/>
	</linearGradient>
	<path fill="url(#SVGID_2_)" d="M705.547,548.474c-5.701-15.251-13.541-27.937-23.66-38.199
		c-10.12-10.263-21.951-17.817-35.776-22.948c-13.826-5.131-28.649-7.697-44.614-7.697v0.143h-106.9v248.011h107.043
		c18.958,0,35.491-3.136,49.46-9.55s25.656-15.108,35.063-26.227c9.265-11.117,16.249-24.373,20.953-39.624
		c4.703-15.252,6.983-31.928,6.983-50.03C714.099,581.685,711.248,563.725,705.547,548.474z M654.234,642.119
		c-3.421,9.55-7.981,17.246-13.826,23.091c-5.844,5.844-12.4,10.119-19.812,12.686c-7.412,2.565-15.109,3.848-22.948,3.848v-0.143
		h-48.747V525.24h38.912c13.541,0,24.801,1.854,33.923,5.701c9.122,3.849,16.534,9.408,22.093,16.534
		c5.56,7.27,9.55,15.821,11.974,25.941c2.423,10.12,3.705,21.381,3.705,33.924C659.508,621.023,657.655,632.569,654.234,642.119z"/>
</g>
<g>
	<g>
		<line fill="none" x1="221.356" y1="792.351" x2="686.02" y2="418.909"/>
	</g>
	<g>
		<path fill="#FFFFFF" d="M221.356,827.984c-10.405,0-20.81-4.562-27.794-13.256c-12.258-15.394-9.834-37.771,5.417-50.029
			l464.663-373.441c15.394-12.258,37.771-9.835,50.03,5.416c12.258,15.395,9.834,37.772-5.417,50.03l-464.663,373.44
			C237.035,825.419,229.196,827.984,221.356,827.984z"/>
	</g>
	<g>
		<linearGradient id="SVGID_3_" gradientUnits="userSpaceOnUse" x1="412.8076" y1="564.7461" x2="494.716" y2="646.6545">
			<stop  offset="0" style="stop-color:#34AEC5"/>
			<stop  offset="1" style="stop-color:#377E95"/>
		</linearGradient>
		<path fill="url(#SVGID_3_)" d="M221.356,818.007c-7.554,0-14.966-3.278-19.955-9.55c-8.837-10.976-7.126-27.225,3.991-36.062
			l464.663-373.44c11.118-8.837,27.225-7.127,36.062,3.99c8.837,10.976,7.127,27.225-3.991,36.062L237.463,812.448
			C232.759,816.154,227.058,818.007,221.356,818.007z"/>
	</g>
</g>
</svg>
