<?xml version="1.0" encoding="utf-8"?>
<!-- Generator: Adobe Illustrator 16.0.0, SVG Export Plug-In . SVG Version: 6.00 Build 0)  -->
<!DOCTYPE svg PUBLIC "-//W3C//DTD SVG 1.1//EN" "http://www.w3.org/Graphics/SVG/1.1/DTD/svg11.dtd">
<svg version="1.1" id="Ebene_1" xmlns="http://www.w3.org/2000/svg" xmlns:xlink="http://www.w3.org/1999/xlink" x="0px" y="0px"
	 width="1200px" height="1200px" viewBox="0 0 1200 1200" enable-background="new 0 0 1200 1200" xml:space="preserve">
<g>
	<linearGradient id="SVGID_1_" gradientUnits="userSpaceOnUse" x1="227.415" y1="489.251" x2="456.1834" y2="718.0193">
		<stop  offset="0" style="stop-color:#34AEC5"/>
		<stop  offset="1" style="stop-color:#377E95"/>
	</linearGradient>
	<polygon fill="url(#SVGID_1_)" points="391.971,574.843 291.626,574.843 291.626,479.629 237.035,479.629 237.035,727.64 
		291.626,727.64 291.626,620.596 391.971,620.596 391.971,727.64 446.562,727.64 446.562,479.629 391.971,479.629 	"/>
	<linearGradient id="SVGID_2_" gradientUnits="userSpaceOnUse" x1="471.791" y1="502.5762" x2="673.9255" y2="704.7106">
		<stop  offset="0" style="stop-color:#34AEC5"/>
		<stop  offset="1" style="stop-color:#377E95"/>
	</linearGradient>
	<path fill="url(#SVGID_2_)" d="M705.547,548.474c-5.701-15.251-13.541-27.937-23.66-38.199
		c-10.12-10.263-21.951-17.817-35.776-22.948c-13.826-5.131-28.649-7.697-44.614-7.697v0.143h-106.9v248.011h107.043
		c18.958,0,35.491-3.136,49.46-9.55s25.656-15.108,35.063-26.227c9.265-11.117,16.249-24.373,20.953-39.624
		c4.703-15.252,6.983-31.928,6.983-50.03C714.099,581.685,711.248,563.725,705.547,548.474z M654.234,642.119
		c-3.421,9.55-7.981,17.246-13.826,23.091c-5.844,5.844-12.4,10.119-19.812,12.686c-7.412,2.565-15.109,3.848-22.948,3.848v-0.143
		h-48.747V525.24h38.912c13.541,0,24.801,1.854,33.923,5.701c9.122,3.849,16.534,9.408,22.093,16.534
		c5.56,7.27,9.55,15.821,11.974,25.941c2.423,10.12,3.705,21.381,3.705,33.924C659.508,621.023,657.655,632.569,654.234,642.119z"/>
</g>
</svg>
