<?xml version="1.0" encoding="utf-8"?>
<!-- Generator: Adobe Illustrator 16.0.0, SVG Export Plug-In . SVG Version: 6.00 Build 0)  -->
<!DOCTYPE svg PUBLIC "-//W3C//DTD SVG 1.1//EN" "http://www.w3.org/Graphics/SVG/1.1/DTD/svg11.dtd">
<svg version="1.1" id="Ebene_1" xmlns="http://www.w3.org/2000/svg" xmlns:xlink="http://www.w3.org/1999/xlink" x="0px" y="0px"
	 width="1200px" height="1200px" viewBox="0 0 1200 1200" enable-background="new 0 0 1200 1200" xml:space="preserve">
<linearGradient id="SVGID_1_" gradientUnits="userSpaceOnUse" x1="57.5005" y1="57.5005" x2="880.0003" y2="880.0003">
	<stop  offset="0" style="stop-color:#34AEC5"/>
	<stop  offset="1" style="stop-color:#377E95"/>
</linearGradient>
<path fill="url(#SVGID_1_)" d="M650,875c-125,0-225-100-225-225c0-30-20-50-50-50s-50,20-50,50c0,180,145,325,325,325
	s325-145,325-325S830,325,650,325c-30,0-50,20-50,50s20,50,50,50c125,0,225,100,225,225S775,875,650,875z M185,515
	c-30,0-50-20-50-50s20-50,50-50h165l-85-85L60,125c-20-20-20-50,0-70c10-10,20-15,35-15s25,5,35,15l205,205l85,85V180
	c0-30,20-50,50-50s50,20,50,50v335H185"/>
</svg>
