<?xml version="1.0" encoding="utf-8"?>
<!-- Generator: Adobe Illustrator 16.0.0, SVG Export Plug-In . SVG Version: 6.00 Build 0)  -->
<!DOCTYPE svg PUBLIC "-//W3C//DTD SVG 1.1//EN" "http://www.w3.org/Graphics/SVG/1.1/DTD/svg11.dtd">
<svg version="1.1" id="Ebene_1" xmlns="http://www.w3.org/2000/svg" xmlns:xlink="http://www.w3.org/1999/xlink" x="0px" y="0px"
	 width="1200px" height="1200px" viewBox="0 0 1200 1200" enable-background="new 0 0 1200 1200" xml:space="preserve">
<linearGradient id="SVGID_1_" gradientUnits="userSpaceOnUse" x1="746.6445" y1="672.7168" x2="908.931" y2="835.0033">
	<stop  offset="0" style="stop-color:#34AEC5"/>
	<stop  offset="1" style="stop-color:#377E95"/>
</linearGradient>
<path fill="url(#SVGID_1_)" d="M932.319,628.293c-21.237-14.11-53.022-3.563-63.57,17.675l-88.371,159.068l-49.46-49.46
	c-17.674-17.674-49.459-17.674-67.134,0c-17.674,17.675-17.674,49.46,0,67.135l95.498,95.498
	c10.548,10.548,21.238,14.11,31.785,14.11h7.127c14.111-3.563,28.222-10.547,35.349-24.801l116.736-212.092
	C964.105,670.626,957.121,642.404,932.319,628.293z"/>
<linearGradient id="SVGID_2_" gradientUnits="userSpaceOnUse" x1="342.2173" y1="441.5991" x2="641.7813" y2="741.1631">
	<stop  offset="0" style="stop-color:#34AEC5"/>
	<stop  offset="1" style="stop-color:#377E95"/>
</linearGradient>
<path fill="url(#SVGID_2_)" d="M465.661,847.512H253.569V691.863l134.41-134.41c-7.127-21.237-10.548-42.476-10.548-63.57
	c0-116.736,95.499-212.092,212.092-212.092c116.594,0,212.092,95.499,212.092,212.092c0,116.594-95.498,212.092-212.092,212.092
	h-53.022v70.697h-70.697L465.661,847.512L465.661,847.512z M324.267,776.814h70.697v-70.697h70.697V635.42h123.72
	c77.824,0,141.395-63.57,141.395-141.395s-63.57-141.537-141.395-141.537s-141.395,63.57-141.395,141.395
	c0,21.237,3.563,38.912,14.111,56.586l10.548,21.238L327.83,716.665v60.149H324.267z M589.381,458.534
	c21.238,0,35.349,14.111,35.349,35.349s-14.11,35.349-35.349,35.349c-21.237,0-35.349-14.111-35.349-35.349
	S571.707,458.534,589.381,458.534 M589.381,423.186c-38.912,0-70.697,31.785-70.697,70.697s31.785,70.697,70.697,70.697
	s70.697-31.785,70.697-70.697S631.856,423.186,589.381,423.186z"/>
</svg>
